{"title":"From.Paris.With.Love.2010.SWESUB.x264.AAC.mp4-Zen_Bud","uid":5648531,"size":1124560639,"categoryP":"video","categoryS":"movies","magnet":"?xt=urn:btih:ec0417d7292aae16c03a40794e486ecf682f8ca5&amp;dn=From.Paris.With.Love.2010.SWESUB.x264.AAC.mp4-Zen_Bud&amp;tr=udp%3A%2F%2Ftracker.openbittorrent.com%3A80&amp;tr=udp%3A%2F%2Fopen.demonii.com%3A1337&amp;tr=udp%3A%2F%2Ftracker.coppersurfer.tk%3A6969&amp;tr=udp%3A%2F%2Fexodus.desync.com%3A6969","seeders":0,"leechers":0,"uploader":"Zen_Bud","files":-1,"time":1277538323,"description":"General\nComplete name                    : From Paris With Love.mp4\nFormat                           : MPEG-4\nCodec ID                         : mp42\nFile size                        : 1.05 GiB\nDuration                         : 1h 32mn\nOverall bit rate                 : 1 617 Kbps\nWriting application              : HandBrake 0.9.3 2008112300\n\nVideo\n\nFormat                           : AVC\nDuration                         : 1h 32mn\nBit rate                         : 1 500 Kbps\nWidth                            : 720 pixels\nHeight                           : 368 pixels\nDisplay aspect ratio             : 2.35:1\nStream size                      : 995 MiB (93%)\nWriting library                  : x264 core 65\n\n\nAudio\n\nFormat                           : AAC\nDuration                         : 1h 32mn\nBit rate                         : 112 Kbps\nChannel(s)                       : 2 channels\nChannel positions                : Front: L R\nSampling rate                    : 48.0 KHz\nStream size                      : 74.2 MiB (7%)\nLanguage                         : English\n\n\n\n\n","torrent":{"xt":"urn:btih:ec0417d7292aae16c03a40794e486ecf682f8ca5","amp;dn":"From.Paris.With.Love.2010.SWESUB.x264.AAC.mp4-Zen_Bud","amp;tr":["udp%3A%2F%2Ftracker.openbittorrent.com%3A80","udp%3A%2F%2Fopen.demonii.com%3A1337","udp%3A%2F%2Ftracker.coppersurfer.tk%3A6969","udp%3A%2F%2Fexodus.desync.com%3A6969"],"infoHash":"ec0417d7292aae16c03a40794e486ecf682f8ca5","infoHashBuffer":{"type":"Buffer","data":[236,4,23,215,41,42,174,22,192,58,64,121,78,72,110,207,104,47,140,165]},"announce":[],"urlList":[]}}